<svg id="レイヤー_1" data-name="レイヤー 1" xmlns="http://www.w3.org/2000/svg" viewBox="0 0 205 25"><defs><style>.cls-1,.cls-2{fill:#555;}.cls-1{fill-rule:evenodd;}</style></defs><title>名称未設定-2 [更新済み]</title><path class="cls-1" d="M208.5,403.5v-15h5v15Zm10-20h-15v25h15Z" transform="translate(-203.5 -383.5)"/><polygon class="cls-1" points="35 10 30 10 30 20 25 20 25 5 35 5 35 0 20 0 20 25 35 25 35 10"/><path class="cls-1" d="M248.5,403.5v-15h5v15Zm10-20h-15v25h15Z" transform="translate(-203.5 -383.5)"/><polygon class="cls-1" points="75 0 60 0 60 25 65 25 65 5 70 5 70 25 75 25 75 0"/><polygon class="cls-1" points="95 20 90 20 90 5 95 5 95 0 80 0 80 5 85 5 85 20 80 20 80 25 95 25 95 20"/><polygon class="cls-1" points="115 10 110 10 110 20 105 20 105 5 115 5 115 0 100 0 100 25 115 25 115 10"/><path class="cls-1" d="M328.5,403.5v-15h5v15Zm10-20h-15v25h15Z" transform="translate(-203.5 -383.5)"/><rect class="cls-2" x="140" y="20" width="5" height="5"/><polygon class="cls-1" points="164.91 20 155 20 155 5 164.91 5 164.91 0 150 0 150 25 164.91 25 164.91 20"/><path class="cls-1" d="M378.5,403.5v-15h5v15Zm10-20h-15v25h15Z" transform="translate(-203.5 -383.5)"/><polygon class="cls-1" points="205 0 200 0 200 5 195 5 195 0 190 0 190 25 195 25 195 10 200 10 200 25 205 25 205 0"/></svg>